<?xml version="1.0" encoding="UTF-8" standalone="no"?>
<!-- Generator: Adobe Illustrator 16.0.0, SVG Export Plug-In . SVG Version: 6.00 Build 0)  -->

<svg
   xmlns:dc="http://purl.org/dc/elements/1.1/"
   xmlns:cc="http://creativecommons.org/ns#"
   xmlns:rdf="http://www.w3.org/1999/02/22-rdf-syntax-ns#"
   xmlns:svg="http://www.w3.org/2000/svg"
   xmlns="http://www.w3.org/2000/svg"
   xmlns:sodipodi="http://sodipodi.sourceforge.net/DTD/sodipodi-0.dtd"
   xmlns:inkscape="http://www.inkscape.org/namespaces/inkscape"
   version="1.1"
   id="Capa_1"
   x="0px"
   y="0px"
   width="284.929px"
   height="284.929px"
   viewBox="0 0 284.929 284.929"
   style="enable-background:new 0 0 284.929 284.929;"
   xml:space="preserve"
   sodipodi:docname="down-arrow.svg"
   inkscape:version="0.92.4 (5da689c313, 2019-01-14)"><metadata
   id="metadata45"><rdf:RDF><cc:Work
       rdf:about=""><dc:format>image/svg+xml</dc:format><dc:type
         rdf:resource="http://purl.org/dc/dcmitype/StillImage" /></cc:Work></rdf:RDF></metadata><defs
   id="defs43" /><sodipodi:namedview
   pagecolor="#ffffff"
   bordercolor="#666666"
   borderopacity="1"
   objecttolerance="10"
   gridtolerance="10"
   guidetolerance="10"
   inkscape:pageopacity="0"
   inkscape:pageshadow="2"
   inkscape:window-width="716"
   inkscape:window-height="480"
   id="namedview41"
   showgrid="false"
   inkscape:zoom="0.82827656"
   inkscape:cx="142.46449"
   inkscape:cy="142.46449"
   inkscape:window-x="0"
   inkscape:window-y="0"
   inkscape:window-maximized="0"
   inkscape:current-layer="Capa_1" />
<g
   id="g8"
   style="fill:#ffffff">
	<g
   id="g6"
   style="fill:#ffffff">
		<path
   d="M135.899,167.877c1.902,1.902,4.093,2.851,6.567,2.851s4.661-0.948,6.562-2.851L282.082,34.829    c1.902-1.903,2.847-4.093,2.847-6.567s-0.951-4.665-2.847-6.567L267.808,7.417c-1.902-1.903-4.093-2.853-6.57-2.853    c-2.471,0-4.661,0.95-6.563,2.853L142.466,119.622L30.262,7.417c-1.903-1.903-4.093-2.853-6.567-2.853    c-2.475,0-4.665,0.95-6.567,2.853L2.856,21.695C0.95,23.597,0,25.784,0,28.262c0,2.478,0.953,4.665,2.856,6.567L135.899,167.877z"
   id="path2"
   style="fill:#ffffff" />
		<path
   d="M267.808,117.053c-1.902-1.903-4.093-2.853-6.57-2.853c-2.471,0-4.661,0.95-6.563,2.853L142.466,229.257L30.262,117.05    c-1.903-1.903-4.093-2.853-6.567-2.853c-2.475,0-4.665,0.95-6.567,2.853L2.856,131.327C0.95,133.23,0,135.42,0,137.893    c0,2.474,0.953,4.665,2.856,6.57l133.043,133.046c1.902,1.903,4.093,2.854,6.567,2.854s4.661-0.951,6.562-2.854l133.054-133.046    c1.902-1.903,2.847-4.093,2.847-6.565c0-2.474-0.951-4.661-2.847-6.567L267.808,117.053z"
   id="path4"
   style="fill:#ffffff" />
	</g>
</g>
<g
   id="g10"
   style="fill:#ffffff">
</g>
<g
   id="g12"
   style="fill:#ffffff">
</g>
<g
   id="g14"
   style="fill:#ffffff">
</g>
<g
   id="g16"
   style="fill:#ffffff">
</g>
<g
   id="g18"
   style="fill:#ffffff">
</g>
<g
   id="g20"
   style="fill:#ffffff">
</g>
<g
   id="g22"
   style="fill:#ffffff">
</g>
<g
   id="g24"
   style="fill:#ffffff">
</g>
<g
   id="g26"
   style="fill:#ffffff">
</g>
<g
   id="g28"
   style="fill:#ffffff">
</g>
<g
   id="g30"
   style="fill:#ffffff">
</g>
<g
   id="g32"
   style="fill:#ffffff">
</g>
<g
   id="g34"
   style="fill:#ffffff">
</g>
<g
   id="g36"
   style="fill:#ffffff">
</g>
<g
   id="g38"
   style="fill:#ffffff">
</g>
</svg>