<?xml version="1.0" encoding="UTF-8" standalone="no"?>
<svg
   xmlns:dc="http://purl.org/dc/elements/1.1/"
   xmlns:cc="http://creativecommons.org/ns#"
   xmlns:rdf="http://www.w3.org/1999/02/22-rdf-syntax-ns#"
   xmlns:svg="http://www.w3.org/2000/svg"
   xmlns="http://www.w3.org/2000/svg"
   xmlns:sodipodi="http://sodipodi.sourceforge.net/DTD/sodipodi-0.dtd"
   xmlns:inkscape="http://www.inkscape.org/namespaces/inkscape"
   id="Capa_1"
   enable-background="new 0 0 512 512"
   height="512"
   viewBox="0 0 512 512"
   width="512"
   version="1.1"
   sodipodi:docname="icon-developer.svg"
   inkscape:version="0.92.4 (5da689c313, 2019-01-14)">
  <metadata
     id="metadata23">
    <rdf:RDF>
      <cc:Work
         rdf:about="">
        <dc:format>image/svg+xml</dc:format>
        <dc:type
           rdf:resource="http://purl.org/dc/dcmitype/StillImage" />
      </cc:Work>
    </rdf:RDF>
  </metadata>
  <defs
     id="defs21" />
  <sodipodi:namedview
     pagecolor="#ffffff"
     bordercolor="#666666"
     borderopacity="1"
     objecttolerance="10"
     gridtolerance="10"
     guidetolerance="10"
     inkscape:pageopacity="0"
     inkscape:pageshadow="2"
     inkscape:window-width="1920"
     inkscape:window-height="1017"
     id="namedview19"
     showgrid="false"
     inkscape:zoom="0.4609375"
     inkscape:cx="256"
     inkscape:cy="256"
     inkscape:window-x="-8"
     inkscape:window-y="-8"
     inkscape:window-maximized="1"
     inkscape:current-layer="Capa_1" />
  <path
     d="m467 1h-422c-24.813 0-45 20.187-45 45v420c0 24.813 20.187 45 45 45h422c24.813 0 45-20.187 45-45v-420c0-24.813-20.187-45-45-45zm-422 30h422c8.271 0 15 6.729 15 15v75h-452v-75c0-8.271 6.729-15 15-15zm422 450h-422c-8.271 0-15-6.729-15-15v-315h452v315c0 8.271-6.729 15-15 15z"
     id="path2"
     style="fill:#ffffff" />
  <path
     d="m306.909 197.213c-7.614-3.263-16.433.264-19.696 7.878l-90 210c-3.264 7.614.264 16.433 7.878 19.696 7.617 3.264 16.434-.266 19.696-7.878l90-210c3.264-7.615-.264-16.433-7.878-19.696z"
     id="path4"
     style="fill:#ffffff" />
  <path
     d="m177.713 246.629c-5.176-6.469-14.617-7.517-21.083-2.342l-75 60c-7.499 5.997-7.504 17.424 0 23.426l75 60c6.469 5.176 15.91 4.126 21.083-2.342 5.175-6.469 4.127-15.909-2.343-21.083l-60.358-48.288 60.358-48.287c6.47-5.175 7.518-14.614 2.343-21.084z"
     id="path6"
     style="fill:#ffffff" />
  <path
     d="m430.37 304.287-75-60c-6.469-5.176-15.909-4.127-21.083 2.342-5.175 6.469-4.127 15.909 2.343 21.083l60.358 48.288-60.358 48.287c-6.47 5.175-7.518 14.614-2.343 21.083 5.182 6.476 14.623 7.512 21.083 2.342l75-60c7.499-5.997 7.504-17.423 0-23.425z"
     id="path8"
     style="fill:#ffffff" />
  <circle
     cx="76"
     cy="76"
     r="15"
     id="circle10"
     style="fill:#ffffff" />
  <circle
     cx="136"
     cy="76"
     r="15"
     id="circle12"
     style="fill:#ffffff" />
  <circle
     cx="196"
     cy="76"
     r="15"
     id="circle14"
     style="fill:#ffffff" />
  <path
     d="m346 91h90c8.284 0 15-6.716 15-15s-6.716-15-15-15h-90c-8.284 0-15 6.716-15 15s6.716 15 15 15z"
     id="path16"
     style="fill:#ffffff" />
</svg>
