<?xml version="1.0" encoding="UTF-8" standalone="no"?>
<svg
   xmlns:dc="http://purl.org/dc/elements/1.1/"
   xmlns:cc="http://creativecommons.org/ns#"
   xmlns:rdf="http://www.w3.org/1999/02/22-rdf-syntax-ns#"
   xmlns:svg="http://www.w3.org/2000/svg"
   xmlns="http://www.w3.org/2000/svg"
   xmlns:sodipodi="http://sodipodi.sourceforge.net/DTD/sodipodi-0.dtd"
   xmlns:inkscape="http://www.inkscape.org/namespaces/inkscape"
   id="Bold"
   enable-background="new 0 0 24 24"
   height="1024"
   viewBox="0 0 24 48"
   width="512"
   version="1.1"
   sodipodi:docname="icon-github.svg"
   inkscape:version="0.92.4 (5da689c313, 2019-01-14)">
  <metadata
     id="metadata13">
    <rdf:RDF>
      <cc:Work
         rdf:about="">
        <dc:format>image/svg+xml</dc:format>
        <dc:type
           rdf:resource="http://purl.org/dc/dcmitype/StillImage" />
        <dc:title></dc:title>
      </cc:Work>
    </rdf:RDF>
  </metadata>
  <defs
     id="defs11" />
  <sodipodi:namedview
     pagecolor="#ffffff"
     bordercolor="#666666"
     borderopacity="1"
     objecttolerance="10"
     gridtolerance="10"
     guidetolerance="10"
     inkscape:pageopacity="0"
     inkscape:pageshadow="2"
     inkscape:window-width="1920"
     inkscape:window-height="1017"
     id="namedview9"
     showgrid="false"
     inkscape:zoom="0.921875"
     inkscape:cx="217.07367"
     inkscape:cy="409.02757"
     inkscape:window-x="-8"
     inkscape:window-y="-8"
     inkscape:window-maximized="1"
     inkscape:current-layer="Bold" />
  <path
     d="m 12.29,45.499 c 3.73,0 8.94,0.09 10.835,-3.701 C 23.84,40.349 24,38.676 24,37.098 h -0.001 c 0,-2.073 -0.575,-4.047 -1.95,-5.651 0.255,-0.766 0.385,-1.573 0.385,-2.385 0,-1.064 -0.24,-1.598 -0.73,-2.563 -2.24,0 -3.69,0.42 -5.39,1.742 -1.31,-0.311 -2.67,-0.455 -4.02,-0.455 -1.495,0 -2.986,0.154 -4.435,0.495 C 6.134,26.945 4.684,26.5 2.419,26.5 1.935,27.465 1.69,27.999 1.69,29.063 c 0,0.811 0.125,1.632 0.385,2.414 C 0.695,33.066 0,35.025 0,37.098 c 0,1.578 0.281,3.266 1.01,4.701 1.97,3.835 7.49,3.7 11.28,3.7 z m -5.289,-9.99 c 0.95,0 1.865,0.168 2.8,0.297 3.418,0.52 5.215,-0.297 7.31,-0.297 2.339,0 3.675,1.915 3.675,4.087 0,4.349 -4.015,5.012 -7.53,5.012 h -2.41 c -3.5,0 -7.52,-0.667 -7.52,-5.012 0,-2.172 1.334,-4.087 3.675,-4.087 z"
     id="path2"
     style="fill:#49c2c9;fill-opacity:1"
     inkscape:connector-curvature="0" />
  <path
     d="m 16.655,42.323 c 1.29,0 1.835,-1.692 1.835,-2.727 0,-1.035 -0.545,-2.727 -1.835,-2.727 -1.29,0 -1.835,1.692 -1.835,2.727 0,1.035 0.545,2.727 1.835,2.727 z"
     id="path4"
     style="fill:#49c2c9;fill-opacity:1"
     inkscape:connector-curvature="0" />
  <path
     d="m 7.47,42.323 c 1.29,0 1.835,-1.692 1.835,-2.727 0,-1.035 -0.546,-2.726 -1.835,-2.726 -1.289,0 -1.835,1.692 -1.835,2.727 0,1.035 0.545,2.726 1.835,2.726 z"
     id="path6"
     style="fill:#49c2c9;fill-opacity:1"
     inkscape:connector-curvature="0" />
  <path
     d="m 12.29,21.499 c 3.73,0 8.94,0.09 10.835,-3.700999 0.715,-1.449 0.875,-3.122 0.875,-4.7 h -9.99e-4 c 0,-2.073001 -0.575,-4.0470011 -1.95,-5.6510008 0.255,-0.7660003 0.385,-1.5730003 0.385,-2.385 0,-1.0640001 -0.24,-1.5980001 -0.73,-2.5630001 -2.24,0 -3.69,0.42 -5.39,1.742 -1.31,-0.311 -2.67,-0.455 -4.02,-0.455 -1.495,0 -2.9859998,0.154 -4.4349998,0.495 -1.725,-1.336 -3.1749998,-1.7809999 -5.4399997,-1.7809999 -0.484,0.9649999 -0.729,1.4989999 -0.729,2.5629999 0,0.8109998 0.125,1.632 0.385,2.4140001 C 0.69500011,9.0659999 1.1484123e-7,11.025 1.1484123e-7,13.098001 c 0,1.578 0.28099999515877,3.266 1.00999998515877,4.701 C 2.98,21.634 8.4999999,21.499 12.29,21.499 Z M 7.0009998,11.508999 c 0.9500001,0 1.8650001,0.168 2.8000005,0.297 3.4179997,0.520002 5.2149997,-0.297 7.3099997,-0.297 2.339,0 3.675,1.915002 3.675,4.087002 0,4.348999 -4.015,5.011999 -7.53,5.011999 h -2.41 c -3.5000002,0 -7.5199999,-0.666999 -7.5199999,-5.011999 0,-2.172 1.3339999,-4.087002 3.6749997,-4.087002 z"
     id="path2-3"
     style="fill:#ffffff;stroke-width:0.99999994"
     inkscape:connector-curvature="0" />
  <path
     d="m 16.655,18.323001 c 1.29,0 1.835,-1.692 1.835,-2.727 0,-1.035 -0.545,-2.727 -1.835,-2.727 -1.29,0 -1.835,1.692 -1.835,2.727 0,1.035 0.545,2.727 1.835,2.727 z"
     id="path4-3"
     style="fill:#ffffff;stroke-width:0.99999994"
     inkscape:connector-curvature="0" />
  <path
     d="m 7.4700001,18.323001 c 1.29,0 1.8349997,-1.692 1.8349997,-2.727 0,-1.035 -0.546,-2.726 -1.8349997,-2.726 -1.2890002,0 -1.8350002,1.692 -1.8350002,2.727 0,1.035 0.5450002,2.726 1.8350002,2.726 z"
     id="path6-7"
     style="fill:#ffffff;stroke-width:0.99999994"
     inkscape:connector-curvature="0" />
</svg>
